<?xml version="1.0" encoding="utf-8"?>
<!-- Generator: Adobe Illustrator 25.4.1, SVG Export Plug-In . SVG Version: 6.00 Build 0)  -->
<svg version="1.1" id="Capa_1" xmlns="http://www.w3.org/2000/svg" xmlns:xlink="http://www.w3.org/1999/xlink" x="0px" y="0px"
	 viewBox="0 0 70 70" style="enable-background:new 0 0 70 70;" xml:space="preserve">
<style type="text/css">
	.st0{fill:#FFFFFF;}
</style>
<g>
	<path class="st0" d="M70,7.25c0,18.5,0,37,0,55.51c-0.04,0.13-0.1,0.25-0.12,0.39c-0.74,4.08-4.04,6.85-8.23,6.86
		C43.88,70,26.12,70.01,8.35,69.98c-0.94,0-1.92-0.15-2.81-0.45C2.11,68.38,0,65.29,0,61.51C0,43.83,0,26.16,0,8.48
		C0,8.3,0,8.12,0.01,7.94c0.13-2.56,1.2-4.63,3.2-6.23C4.4,0.76,5.79,0.31,7.25,0c18.5,0,37,0,55.51,0c0.1,0.04,0.21,0.1,0.31,0.11
		c2.26,0.36,4.04,1.5,5.4,3.33C69.31,4.58,69.7,5.89,70,7.25z M56.06,33.76c-0.47,2.88-0.93,5.65-1.4,8.5c-2.83,0-5.61,0-8.39,0
		c0,7.47,0,14.86,0,22.27c5.07,0,10.08,0,15.09,0c2.12,0,3.17-1.06,3.17-3.2c0-17.54,0-35.09,0-52.63c0-2.18-1.05-3.22-3.22-3.22
		c-17.54,0-35.09,0-52.63,0c-2.14,0-3.21,1.05-3.21,3.17c0,17.57,0,35.13,0,52.7c0,2.13,1.06,3.19,3.19,3.19c9.43,0,18.87,0,28.3,0
		c0.24,0,0.48,0,0.73,0c0-7.47,0-14.86,0-22.3c-2.73,0-5.41,0-8.11,0c0-2.84,0-5.62,0-8.49c2.74,0,5.43,0,8.18,0
		c0-2.19-0.07-4.31,0.01-6.42c0.22-5.54,4.08-10.25,9.45-11.6c2.83-0.71,5.71-0.32,8.57-0.38c0.03,0,0.07,0.06,0.08,0.07
		c0,2.79,0,5.56,0,8.38c-0.26,0-0.49,0-0.71,0c-1.41,0-2.83,0-4.24,0c-3.14,0-4.72,1.57-4.72,4.69c0,0.96,0,1.91,0,2.87
		c0,0.79,0,1.58,0,2.42C49.52,33.76,52.74,33.76,56.06,33.76z"/>
</g>
</svg>
