<?xml version="1.0" encoding="utf-8"?>
<!-- Generator: Adobe Illustrator 25.4.1, SVG Export Plug-In . SVG Version: 6.00 Build 0)  -->
<svg version="1.1" id="Capa_1" xmlns="http://www.w3.org/2000/svg" xmlns:xlink="http://www.w3.org/1999/xlink" x="0px" y="0px"
	 viewBox="0 0 70 70" style="enable-background:new 0 0 70 70;" xml:space="preserve">
<style type="text/css">
	.st0{fill:#FFFFFF;}
</style>
<g>
	<path class="st0" d="M69.89,20.36c0,9.44,0,18.88,0,28.32c-0.04,0.25-0.09,0.49-0.11,0.74c-0.15,1.39-0.22,2.78-0.45,4.15
		c-0.75,4.42-2.63,8.25-6.03,11.26c-3.68,3.26-8.1,4.56-12.89,4.89c-1.66,0.11-3.33,0.19-4.99,0.28c-7.06,0-14.11,0-21.17,0
		c-0.43-0.04-0.86-0.1-1.29-0.11c-2.82-0.07-5.63-0.18-8.38-0.86c-5.79-1.42-10.1-4.72-12.66-10.15c-1.6-3.38-2.08-7.01-2.12-10.7
		c-0.08-7.58-0.14-15.16-0.11-22.74c0.01-3.45,0.05-6.92,0.8-10.32C1.8,9.1,5.09,4.58,10.72,1.9c3.33-1.58,6.91-2.05,10.55-2.14
		c9.71-0.23,19.42-0.34,29.12,0.13c2.83,0.14,5.59,0.68,8.19,1.86c6.44,2.92,9.83,8.1,10.89,14.94
		C69.66,17.91,69.75,19.14,69.89,20.36z M34.82,63.78c0-0.04,0-0.07,0-0.11c1.86,0,3.71,0.06,5.57-0.01c4-0.14,8.03-0.09,12-0.59
		c5.41-0.68,9.07-3.81,10.4-9.19c0.53-2.16,0.71-4.44,0.75-6.67c0.12-7.1,0.15-14.21,0.11-21.31c-0.02-2.83-0.16-5.69-0.51-8.5
		c-0.71-5.68-4.24-9.51-9.86-10.64c-2.41-0.48-4.91-0.62-7.37-0.66C39.36,6,32.81,5.99,26.26,6.06c-3.13,0.04-6.3,0.11-9.37,0.61
		c-5.29,0.85-8.8,3.99-10,9.28c-0.53,2.37-0.68,4.85-0.74,7.29c-0.13,5.7-0.17,11.41-0.1,17.12c0.04,3.91,0.15,7.84,0.52,11.73
		c0.37,3.9,2.2,7.11,5.62,9.22c2.28,1.41,4.83,1.98,7.46,2.07C24.7,63.57,29.76,63.65,34.82,63.78z"/>
	<path class="st0" d="M34.79,52.89c-10.01-0.06-18.12-8.21-18.04-18.14c0.07-10.02,8.23-18.11,18.16-18.02
		c10.04,0.09,18.11,8.24,18,18.17C52.79,44.92,44.7,52.96,34.79,52.89z M23.11,34.81c0,6.49,5.22,11.7,11.7,11.71
		c6.49,0,11.71-5.19,11.73-11.69c0.02-6.51-5.22-11.75-11.74-11.74C28.32,23.1,23.11,28.32,23.11,34.81z"/>
	<path class="st0" d="M57.83,16.03c-0.01,2.35-1.9,4.22-4.26,4.2c-2.3-0.02-4.17-1.92-4.16-4.24s1.88-4.18,4.2-4.19
		C55.98,11.8,57.84,13.66,57.83,16.03z"/>
</g>
</svg>
