<?xml version="1.0" encoding="utf-8"?>
<!-- Generator: Adobe Illustrator 25.4.1, SVG Export Plug-In . SVG Version: 6.00 Build 0)  -->
<svg version="1.1" id="Capa_1" xmlns="http://www.w3.org/2000/svg" xmlns:xlink="http://www.w3.org/1999/xlink" x="0px" y="0px"
	 viewBox="0 0 70 70" style="enable-background:new 0 0 70 70;" xml:space="preserve">
<style type="text/css">
	.st0{fill:#FFFFFF;}
</style>
<g>
	<path class="st0" d="M0,58.41c5.35-1.99,10.63-3.95,15.91-5.91c0-0.09,0.01-0.18,0.01-0.27c-5.11-2.7-7.51-7.45-8.8-13.09
		c0.18-0.01,0.37-0.03,0.67-0.05c-2.06-2.34-3.4-4.98-4.07-8.02c-0.49-2.23-0.28-4.46-0.09-6.78c0.49,0.18,0.95,0.35,1.58,0.58
		C2.2,18.15,3.36,12.01,7,6.04C13.26,15,21.33,20.81,31.78,22.36c0-0.84-0.02-1.65,0-2.47c0.14-5.92,2.81-10.22,7.67-12.79
		c5.76-3.05,11.5-2.75,16.84,1.22c1.1,0.82,1.93,0.96,3.11,0.48c2.49-1.02,5.02-1.91,7.54-2.86c0.23-0.09,0.47-0.18,0.88-0.33
		c-0.89,2.73-1.73,5.3-2.59,7.96c1.61-0.08,3.13-0.15,4.76-0.23c-0.19,0.3-0.32,0.52-0.46,0.73c-1.89,2.76-3.73,5.55-5.68,8.25
		c-1.33,1.84-1.82,3.86-1.72,6.15c0.23,5.04-0.25,9.99-1.68,14.82c-2.44,8.24-7.26,14.38-14.39,18.43
		C40.9,64.65,35.33,66,29.53,66.4c-4.88,0.34-9.72,0.05-14.5-1.04c-4-0.91-7.7-2.7-11.29-4.75C2.5,59.9,1.27,59.16,0,58.41z
		 M29.85,50.11c-6.27,3.31-12.49,6.69-19.33,9.11c0.75,0.3,1.27,0.52,1.8,0.74c3.57,1.43,7.3,1.91,11.07,2.11
		c6.77,0.36,13.35-0.49,19.55-3.6c6.06-3.04,10.47-7.81,12.95-14.51c1.82-4.92,2.39-10.06,2.14-15.3c-0.16-3.34,0.54-6.34,2.54-8.94
		c0.34-0.44,0.63-0.92,1.04-1.51c-0.82,0-1.49,0-2.24,0c0.59-1.81,1.14-3.52,1.73-5.34c-0.95,0.29-1.77,0.57-2.6,0.8
		c-1.15,0.32-2.22,0.12-3.18-0.64c-0.46-0.37-0.88-0.78-1.35-1.13c-3.51-2.59-7.27-2.97-11.27-1.51c-5.12,1.87-7.7,6.79-6.53,12.42
		c0.3,1.44,0.43,2.92,0.64,4.43C25.53,26.89,15.91,22.69,8,14.03c-0.53,2.01-0.53,3.91-0.11,5.81c0.6,2.75,1.93,5.05,3.95,6.85
		c1.77,1.58,3.6,3.07,5.41,4.6c0.19,0.16,0.37,0.33,0.55,0.5c-0.02,0.04-0.04,0.09-0.05,0.13c-3.27-0.37-6.53-0.75-9.86-1.13
		c1.05,3.56,3.03,6.26,6.25,7.71c1.64,0.74,3.43,1.13,5.17,1.63c1.44,0.42,2.91,0.77,4.36,1.16c0,0.06,0,0.12,0,0.18
		c-3.39,0.96-6.78,1.92-10.17,2.87c0.01,0.02,0.07,0.14,0.15,0.26c2.05,3,4.85,4.6,8.28,4.91C24.57,49.77,27.21,49.91,29.85,50.11z"
		/>
</g>
</svg>
